<?xml version="1.0" encoding="utf-8"?>
<!-- Generator: Adobe Illustrator 25.3.1, SVG Export Plug-In . SVG Version: 6.00 Build 0)  -->
<svg version="1.1" id="Layer_1" xmlns="http://www.w3.org/2000/svg" xmlns:xlink="http://www.w3.org/1999/xlink" x="0px" y="0px"
	 viewBox="0 0 1366 300" style="enable-background:new 0 0 1366 300;" xml:space="preserve">
<style type="text/css">
	.st0{fill:#FA693D;}
	.st1{fill:#EBAF43;}
	.st2{fill:#1B2C42;}
	.st3{font-family:'Poppins-Bold';}
	.st4{font-size:53.2547px;}
	.st5{font-family:'Poppins-Medium';}
	.st6{font-size:56.3725px;}
	.st7{display:none;fill:#1B2C42;}
</style>
<g>
	<g>
		<g id="BRAIN_1_">
			<path class="st0" d="M330.06,132.65c23.84,0,30.85,2.83,31,23.1c0,13.56-4.02,19.07-13.71,21.61c8.2,2.24,14.9,6.71,14.9,21.61
				c0,22.35-7.3,27.57-31.89,27.57h-1.49c-24.59,0-28.02,0.45-28.02,0.45s0.45-6.41,0.45-39.19v-1.49c0-44.71-1.04-52.16-1.04-52.16
				s11.18-1.49,28.31-1.49H330.06z M344.37,160.22c0-16.39-0.75-17.14-13.26-17.14c-9.84,0-13.26,0-14.75,1.49
				c-2.09,2.09-2.24,4.47-2.24,17.14c0,5.51,0.15,7.6,1.64,9.09c1.49,1.49,6.41,1.34,9.98,1.34
				C343.62,172.14,344.37,171.39,344.37,160.22z M345.86,198.96c0-15.65,0-17.43-14.9-17.43c-8.94,0-11.47,0.15-12.96,1.64
				s-1.49,6.11-1.49,22.95c0,7,0.15,8.2,1.19,9.24c1.19,1.19,4.47,1.19,8.05,1.19C344.37,216.55,345.86,216.1,345.86,198.96z"/>
			<path class="st0" d="M388.18,189.28c-0.89,1.79-1.04,4.47-1.04,11.18c0,17.14,1.19,25.63,1.19,25.63
				c-1.34,0.45-13.26,1.19-16.99,0.45c0,0,0.75-16.39,0.75-38.74v-1.49c0-44.71-0.75-52.9-0.75-52.9s4.92-1.04,23.54-1.04h0.75
				c23.1,0,35.02,8.49,35.17,26.38c0,15.65-7.45,21.31-14.16,23.84c5.51,1.49,10.43,5.22,10.43,13.41c0,4.47-0.45,8.2-0.45,12.67
				c0,8.94,3.43,10.73,16.84,10.73c6.71,0,14.31-0.6,14.31-0.6c0.75,1.49,0.6,7.45,0,8.2c0,0-6.71,1.64-21.61,1.64
				c-17.88,0-23.99-3.13-23.99-15.5c0-5.96,0.45-10.43,0.45-13.41c0-3.28-0.3-6.26-1.49-8.49c-1.19-2.09-4.17-4.17-12.37-4.17
				C390.12,187.04,388.78,188.08,388.18,189.28z M414.41,175.12c2.53-2.53,2.53-7,2.53-14.9c0-5.96-0.45-11.62-2.23-14.16
				c-1.49-2.24-4.77-2.98-15.95-2.98c-8.2,0-10.13,0.45-11.62,1.94c-2.09,2.09-2.24,9.24-2.24,21.91c0,5.22,0.3,7.75,2.24,9.69
				c1.19,1.19,3.43,1.94,7.9,1.94C405.02,178.55,411.72,177.8,414.41,175.12z"/>
			<path class="st0" d="M500.84,206.12c3.58,11.62,4.47,12.96,16.39,12.96c4.47,0,7.6-0.3,7.6-0.3c0.75,1.49,0.6,7.45,0,8.2
				c0,0-6.71,1.34-17.88,1.34c-14.9,0-17.43-2.83-20.27-13.71l-3.87-15.2c-1.19-4.47-2.53-4.77-11.03-4.77h-0.75
				c-11.92,0-13.86,0.89-14.9,5.07c-2.24,8.79-2.98,14.9-2.98,14.9c-1.19,0.15-2.24,0.15-4.02,0.15c-4.92,0-11.03-0.3-13.11-0.89
				c8.49-28.31,14.9-50.67,22.95-81.21c3.28-0.3,7.6-0.6,11.62-0.6s7.75,0.3,9.98,0.6c4.62,19.07,11.92,46.05,18.03,66.16
				L500.84,206.12z M473.57,157.98c-1.94-7.45-2.68-10.43-4.47-10.43c-2.09,0-3.13,4.17-5.07,11.62l-4.02,15.94
				c-0.75,3.13-1.34,5.36-1.34,6.85c0,3.43,1.94,3.58,10.13,3.58h0.75c6.71,0,9.69-0.15,9.69-3.73c0-1.49-0.45-2.98-1.19-6.26
				L473.57,157.98z"/>
			<path class="st0" d="M522.15,142.48c-3.43,0.75-14.01,1.04-15.94,0.3c-0.75-1.34-1.19-7.15-0.75-9.54
				c3.58-0.3,10.88-0.89,16.09-0.15C522.3,135.48,522.3,140.25,522.15,142.48z M520.51,212.37c-5.22,0.45-12.52,0-13.56-0.3
				c0,0,0.3-14.6,0.3-27.27c0-20.12-0.75-36.06-0.75-36.06c2.98-0.75,11.77-1.04,14.75-0.15L520.51,212.37z"/>
			<path class="st0" d="M532.73,227.57c0,0,0.15-12.96,0.15-33.08c0-41.72-1.19-59.9-1.19-59.9c1.79-1.04,14.9-1.49,17.29-1.04
				c8.2,19.22,19.97,43.36,30.4,62.74c1.04,1.94,1.64,2.83,3.13,2.83c1.04,0,1.64-0.15,1.79-2.24s0.3-8.64,0.3-16.09
				c0-20.86-1.94-47.39-1.94-47.39c1.94-0.15,9.69-0.45,14.16,0c0,0-0.6,26.82-0.6,63.33c0,23.84,0.3,29.8,0.3,29.8
				c-1.64,0.75-14.6,1.04-18.78,0c-9.54-21.01-18.33-39.49-28.76-60.35c-1.49-2.98-1.94-3.43-3.28-3.43c-0.89,0-1.64,0.45-1.64,2.38
				c0,51.71,0.6,62.14,0.6,62.14C543.46,227.57,535.26,227.87,532.73,227.57z"/>
			<path class="st0" d="M653.28,167.67c0-8.94-0.3-15.94-1.64-18.63c-1.49-2.83-5.22-3.73-12.96-3.73
				c-10.88,0-13.56,1.49-15.05,4.47c-1.34,2.83-2.09,13.41-2.09,35.02c0,15.65,0.3,25.33,1.79,28.31c1.49,2.98,4.47,3.73,10.88,3.73
				c10.73,0,12.67-0.75,14.16-3.73c1.34-2.68,1.49-10.43,0.75-23.1c4.17-0.75,12.67-0.75,15.65,0c0,33.53-5.81,38-27.42,38
				c-24.59,0-30.7-6.71-30.7-42.47c-0.15-44.71,8.79-52.9,32.64-52.9c20.12,0,26.82,2.98,27.72,34.27
				C665.5,167.67,657.75,168.12,653.28,167.67z"/>
			<path class="st0" d="M739.86,131.61c12.67,0,26.82,1.04,26.82,1.04c0.45,2.24,0.3,5.51-0.15,7.3c0,0-6.41-0.3-14.75-0.3
				c-12.67,0-13.41,1.19-13.26,21.31v0.75c0,36.51,1.04,63.78,1.04,63.78c-3.73,0.75-9.54,0.89-14.31,0.75c0,0,0.6-12.37,0.6-26.53
				c0-12.22-0.15-14.6-1.19-15.65c-1.19-1.19-4.02-1.49-11.47-1.49c-17.14,0-19.52,0.15-21.01,1.64c-1.34,1.34-1.34,6.56-1.34,14.75
				c0,18.63,0.75,27.57,0.75,27.57c-4.32,0.45-10.58,0.45-15.8,0.45c0,0,0.89-10.88,0.89-37.7c0-44.71-0.89-56.18-0.89-56.18
				c4.47-0.45,8.94-0.6,13.26-0.45c0,0-0.45,11.92-0.45,23.84c0,8.05,0,13.41,1.49,14.9c1.19,1.19,3.28,1.49,9.69,1.49
				c14.9,0,21.01-0.15,22.8-1.94c1.19-1.19,1.34-4.02,1.34-9.24c0-4.47-0.3-14.16-0.3-16.39
				C723.47,135.63,725.7,131.61,739.86,131.61z"/>
			<path class="st0" d="M768.17,148c0.45,2.38,0,10.13-0.75,11.47c-1.94,0.75-12.52,0.45-15.94-0.3c-0.3-2.24-0.3-8.79,0.45-11.18
				C757.15,147.25,765.04,147.4,768.17,148z M765.79,226.53c-2.24,0.75-12.22,0.75-13.26,0.45c0,0,0.15-18.33,0.15-31
				c0-12.67-0.45-31.29-0.45-31.29c2.68-1.04,11.18-1.04,14.16-0.75L765.79,226.53z"/>
			<path class="st0" d="M793.21,132.65c0,0-1.49,32.04-1.49,62.59c0,11.18,0.75,16.54,2.98,18.78c3.58,3.58,9.39,4.32,36.96,4.32
				c19.37,0,32.93-1.64,32.93-1.64c0.45,1.19,0.75,8.94,0.3,10.88c0,0-12.97-0.45-39.04-0.45c-32.78,0-48.13,0.89-48.13,0.89
				s0.6-15.65,0.6-35.02c0-47.69-1.19-59.61-1.19-59.61C781.29,132.65,787.99,132.35,793.21,132.65z"/>
			<path class="st0" d="M832.25,132.35c29.8,0,33.68,11.62,33.68,40.53c0,25.33-9.69,38.3-31.29,38.3c-8.94,0-17.88-0.15-23.84,0.45
				c0,0,0.75-7.45,0.75-32.78c0-32.78-1.64-45.75-1.64-45.75S819.58,132.35,832.25,132.35z M835.38,200.16
				c11.47,0,16.69-7.15,16.69-25.78c0-24.59-1.49-32.34-18.93-32.34c-4.17,0-7.75,0.3-8.64,2.98c-0.89,2.68-1.04,9.24-1.04,33.83
				c0,9.69,0.75,14.16,2.24,17.14C827.18,198.96,830.91,200.16,835.38,200.16z"/>
		</g>
		<g id="Drummers_1_">
			<path class="st1" d="M326.81,28.01c17.88,0,25.63,2.24,30.25,11.18c3.43,6.86,4.17,20.12,4.17,37.26
				c0,30.55-10.43,44.41-31.14,45c-10.43,0.3-14.6,0.15-20.12,0.15c-4.17,0-9.39,0.3-9.39,0.3s1.04-15.65,1.04-49.92
				c0-27.57-1.64-44.26-1.64-44.26S310.42,28.01,326.81,28.01z M327.26,109.97c13.86,0,20.12-9.69,20.12-33.53
				c0-20.86-1.04-29.8-4.77-33.53c-3.28-3.28-8.2-3.73-16.39-3.73c-6.71,0-9.24,1.04-10.43,3.43c-1.19,2.38-1.49,9.24-1.49,25.63
				c0,27.57,0.75,34.42,2.53,38C318.32,109.22,322.49,109.97,327.26,109.97z"/>
			<path class="st1" d="M497.14,121.89c0,0-18.78,1.79-38.15,1.79c-40.23,0-46.94-1.04-47.09-17.43c0-4.47,0.45-8.94,0.45-11.92
				c0-3.28-0.3-6.26-1.49-8.49c-1.19-2.09-4.17-4.17-12.37-4.17c-8.64,0-9.98,1.04-10.58,2.24c-0.89,1.79-1.04,4.47-1.04,11.18
				c0,17.14,1.19,25.63,1.19,25.63c-1.34,0.45-13.26,1.19-16.99,0.45c0,0,0.75-16.39,0.75-38.74v-1.49c0-44.71-0.75-52.9-0.75-52.9
				s4.92-1.04,23.54-1.04h0.75c23.1,0,35.02,8.49,35.17,26.38c0,15.65-7.45,21.31-14.16,23.84c5.51,1.49,10.43,5.22,10.43,12.67
				c0,4.47-0.45,8.94-0.45,12.67c0,9.69,1.19,12.22,34.72,12.22c23.84,0,35.76-2.83,35.76-2.83
				C497.58,113.39,497.88,121.14,497.14,121.89z M414.13,69.73c2.53-2.53,2.53-7,2.53-14.9c0-5.96-0.45-11.62-2.23-14.16
				c-1.49-2.24-4.77-2.98-15.95-2.98c-8.2,0-10.13,0.45-11.62,1.94c-2.09,2.09-2.24,9.24-2.24,21.91c0,5.22,0.3,7.75,2.24,9.69
				c1.19,1.19,3.43,1.94,7.9,1.94C404.74,73.16,411.45,72.41,414.13,69.73z"/>
			<path class="st1" d="M466.29,105.5c-22.35,0-26.82-7.45-26.82-32.04c0-24.59,0.15-45.6,0.15-45.6c4.47-0.3,9.39-0.3,13.86,0.45
				c0,0-1.04,21.76-1.04,33.68c0,15.65,0.3,22.5,1.49,26.08c1.34,4.02,4.92,5.51,12.37,5.51c6.71,0,10.88-1.49,12.22-5.51
				c1.04-3.13,1.49-7.15,1.49-19.82c0-20.12-1.19-40.23-1.19-40.23c1.79-0.3,9.69-1.04,13.71-0.45c0,0,0.6,17.58,0.6,45.9
				C493.11,96.56,485.66,105.5,466.29,105.5z"/>
			<path class="st1" d="M575.07,84.63c0.15-8.2,0.3-20.27,0.3-27.87c0-3.72-0.3-4.47-1.19-4.47c-1.19,0-1.64,1.04-2.83,4.02
				c-5.96,14.9-17.58,48.43-22.05,63.33c-1.64,0.75-7.45,1.49-10.73,0.75c-4.47-17.88-13.71-49.18-19.67-67.06
				c-1.04-3.13-1.64-4.02-2.83-4.02c-0.89,0-1.19,0.6-1.34,4.32c-0.3,7.45-0.45,21.76-0.45,33.23c0,23.84,0.75,34.27,0.75,34.27
				c-1.19,0.3-8.79,0.6-11.33,0.3c0,0,0.89-17.43,0.89-45c0-29.8-0.45-48.43-0.45-48.43c2.23-0.75,19.22-1.19,21.61-0.75
				c4.62,17.88,14.01,50.37,18.48,63.78c0.45,1.34,1.04,2.53,2.09,2.53c0.89,0,1.34-0.89,1.94-2.53
				c5.96-16.39,15.65-42.92,21.46-63.78c2.38-0.45,17.14-0.3,18.93,0.75c0,0-0.15,18.63-0.15,48.43v21.61
				c0,14.16,2.98,16.84,14.9,16.84c8.2,0,12.96-0.45,12.96-0.45c0.45,1.49,0.6,4.47,0.3,6.71c0,0-7.15,1.79-19.82,1.79
				c-20.12,0-22.5-3.28-22.2-17.43L575.07,84.63z"/>
			<path class="st1" d="M647.34,91.79c5.96-14.9,18.63-48.13,24.74-66.01c2.38-0.45,16.09-0.3,17.88,0.75c0,0-0.15,18.63-0.15,32.04
				c0,43.96,0.75,60.35,0.75,60.35c-2.98,0.75-14.16,1.04-15.35,0.75c1.04-18.93,1.04-42.62,1.04-60.65c0-3.72-0.3-4.47-1.19-4.47
				c-1.19,0-1.64,1.04-2.83,4.02c-5.96,14.9-17.88,45.9-22.35,60.8c-1.64,0.75-9.09,1.04-12.22,0.3
				c-4.47-17.88-12.37-42.02-18.33-59.91c-1.04-3.13-1.64-4.02-2.83-4.02c-0.89,0-1.19,0.6-1.34,4.32c-0.3,7.45-0.3,14.9-0.3,18.63
				c0,8.94,0.75,26.08,0.75,26.08c-1.19,0.3-11.77,0.6-14.31,0.3c0,0,0.89-19.67,0.89-42.77c0-22.35-0.45-35.02-0.45-35.02
				c2.23-0.75,19.22-1.19,21.61-0.75c4.62,17.88,15.5,51.86,19.97,65.27c0.45,1.34,1.04,2.53,2.09,2.53
				C646.15,94.32,646.75,93.28,647.34,91.79z"/>
			<path class="st1" d="M718.87,110.41c1.19,2.38,4.47,3.43,20.86,3.43c16.39,0,31.44-0.89,31.44-0.89
				c0.75,2.98,0.75,8.49,0.3,10.43c0,0-13.71-0.3-33.08-0.3c-21.46,0-36.51,0.45-36.51,0.45s0.6-15.8,0.6-45.6
				c0-32.04-0.89-49.92-0.89-49.92s20.71,0,46.49-0.75c0.6,3.58,0,10.28-0.75,11.18c0,0-6.85-0.45-14.31-0.45
				c-11.18,0-15.95,0.6-16.84,2.38c-0.89,1.79-1.04,4.77-1.04,11.47c0,9.69,0.75,13.86,1.49,15.35c1.04,2.09,3.73,2.24,15.65,2.24
				c7.45,0,14.75-0.6,14.75-0.6c0.45,1.49,0.6,5.96,0.15,9.69h-8.94c-15.65,0-18.63,0.75-19.82,3.13
				c-0.75,1.49-1.04,5.96-1.04,12.67C717.38,99.54,717.68,108.18,718.87,110.41z"/>
			<path class="st1" d="M779.08,26.96h0.75c23.1,0,35.02,8.49,35.17,26.38c0,15.65-7.45,21.31-14.16,23.84
				c5.51,1.49,10.43,5.22,10.43,13.41c0,4.47-0.45,8.2-0.45,12.67c0,8.94,1.94,10.88,22.8,10.88c21.61,0,32.93-1.64,32.93-1.64
				c0.75,1.49,0.75,8.64,0,9.39c0,0-19.37,1.49-38.74,1.49c-25.33,0-31.29-2.24-31.44-15.65c0-5.96,0.45-10.43,0.45-13.41
				c0-3.28-0.3-6.26-1.49-8.49c-1.19-2.09-4.17-4.17-12.37-4.17c-8.64,0-9.98,1.04-10.58,2.24c-0.89,1.79-1.04,4.47-1.04,12.67
				c0,3.73,0.45,9.69,0.45,9.69c-1.49,0.45-12.22,1.19-15.95,0.45c0,0,0.45-12.37,0.45-27.27v-1.49c0-37.26-0.75-49.92-0.75-49.92
				S760.45,26.96,779.08,26.96z M798.6,69.73c2.53-2.53,2.53-7,2.53-14.9c0-5.96-0.45-11.18-2.23-13.71
				c-1.49-2.24-4.77-3.43-15.95-3.43c-8.2,0-10.13,0.45-11.62,1.94c-2.09,2.09-2.24,9.24-2.24,21.91c0,5.22,0.3,7.75,2.24,9.69
				c1.19,1.19,3.43,1.94,7.9,1.94C789.21,73.16,795.92,72.41,798.6,69.73z"/>
			<path class="st1" d="M867.15,81.53c0,18.25-7.3,24.71-21.31,24.71c-19.82,0-23.4-4.98-23.4-26.55c1.94-0.74,9.09-0.74,12.22-0.37
				c-1.04,13.09-0.45,15.86,9.39,15.86c9.69,0,10.28-2.77,10.28-13.28c0-10.33-1.34-11.06-11.77-11.06
				c-13.41,0-19.52-2.4-19.52-20.84c0-16.6,9.39-23.05,23.1-23.05c15.8,0,23.25,6.45,20.27,25.26c-2.24,0.92-9.69,0.92-11.92,0.18
				c0,0,0.45-2.03,0.45-4.79c0-7.01-1.94-8.48-9.39-8.48c-8.94,0-9.98,1.11-9.98,10.88c0,11.43,1.79,11.62,11.47,11.62
				C857.31,61.62,867.15,63.28,867.15,81.53z"/>
		</g>
		<g>
			<path class="st0" d="M870.2,222.3c0-2.75-0.04-3.62-0.11-3.9c-0.12-0.5-0.43-0.6-1.95-0.67l-0.71-0.04
				c-0.09-0.28-0.12-0.83,0-1.01c0.62-0.02,2.34-0.05,4.7-0.05c2.75,0,6.91,0.04,7.66,0.05c0.09,0.23,0.04,0.82-0.02,0.94
				l-3.56,0.05c-3.81,0.05-4.22,0.12-4.38,0.6c-0.11,0.32-0.12,1.19-0.12,2.25c0,4.96,0.14,7.41,0.14,7.41
				c-0.39,0.07-1.4,0.09-1.75,0.02C870.09,227.96,870.2,225.23,870.2,222.3z"/>
			<path class="st0" d="M878.97,224.22c0.53-1.42,1.77-5.14,2.38-7.45c0.27-0.09,2.16-0.05,2.43,0.04c0,0-0.02,2.22-0.02,5.76
				c0,3.28,0.09,5.23,0.09,5.23c-0.69,0.09-1.65,0.05-1.79,0.02c0,0,0.11-2.06,0.11-4.89c0-0.62,0-1.47-0.04-2.36
				c-0.02-0.44-0.05-0.51-0.16-0.51c-0.12,0-0.19,0.09-0.34,0.44c-0.71,1.77-1.99,5.5-2.52,7.27c-0.21,0.14-1.12,0.12-1.33,0.04
				c-0.53-1.77-1.47-5.09-2.18-7.22c-0.12-0.37-0.18-0.5-0.32-0.5c-0.16,0-0.16,0.23-0.16,0.44c0,2.04,0,5.11,0.09,7.32
				c-0.21,0.05-0.83,0.07-1.36,0.04c0,0,0.07-2.04,0.07-5.32c0-3.01-0.04-3.99-0.04-3.99c0.21-0.12,2.62-0.14,2.91-0.09
				c0.5,1.86,0.98,3.55,1.68,5.67c0.07,0.21,0.14,0.35,0.25,0.35C878.85,224.52,878.92,224.36,878.97,224.22z"/>
		</g>
	</g>
	<g>
		<polygon class="st1" points="1045.92,161.79 1026.97,167.6 1027.89,129.71 1045.12,123.77 		"/>
		<g>
			<g>
				<g>
					<path class="st2" d="M1030.19,88.44c0.05,0.08,0.1,0.15,0.15,0.23c1.68,2.6,1.81,2.97,1.4,3.44c-0.21,0.25-0.54,0.32-0.81,0.47
						c-0.43,0.26-0.88,0.5-1.44,0.56c-0.21,0.02-0.26,0.28-0.41,0.4c-0.37,0.32-0.86,0.45-1.22,0.79c-0.13,0.13-0.18,0.39-0.38,0.4
						c-0.51,0.03-0.54,0.79-1.07,0.77c-0.56-0.03-0.61,0.7-1.23,0.57c-0.44-0.1-0.66,0.19-0.78,0.59c-0.06,0.2-0.28,0.12-0.43,0.16
						c-0.38,0.11-0.73,0.28-1.11,0.4c-0.49,0.15-0.89,0.44-1.41,0.55c-0.24,0.05-0.42,0.2-0.58,0.38c-0.14,0.16-0.52-0.08-0.6,0.16
						c-0.08,0.25-0.24,0.35-0.47,0.36c-0.45,0.01-0.61,0.48-0.97,0.61c-0.5,0.18-0.62,0.93-1.31,0.8c-0.36-0.07-1.02-0.77-1.75-1.91
						c-0.53-0.83-0.66-1.15-0.66-1.5c0-0.51,0.35-0.49,0.55-0.69c0.34-0.35,0.54-0.91,0.95-1.17c0.67-0.42,1.39-0.74,2.04-1.18
						c1.03-0.69,2.29-1.01,3.18-1.9c0.61-0.6,1.34-1.01,2-1.53c0.67-0.53,1.36-1.01,2-1.58c0.77-0.69,1.66-1.18,2.36-1.97
						c0.11-0.13,0.19-0.3,0.27-0.47c0.06-0.12,0.18-0.06,0.57,0.51C1029.44,87.29,1029.81,87.87,1030.19,88.44z"/>
				</g>
			</g>
		</g>
		<g>
			<g>
				<g>
					<path class="st2" d="M1045.04,121.16c0.04,0.08,0.09,0.16,0.13,0.25c1.38,2.77,1.45,3.16,0.91,3.63
						c-0.28,0.25-0.66,0.3-0.99,0.45c-0.53,0.24-1.08,0.48-1.71,0.51c-0.24,0.01-0.35,0.28-0.53,0.4c-0.48,0.31-1.05,0.42-1.52,0.76
						c-0.17,0.12-0.27,0.4-0.5,0.4c-0.58,0-0.76,0.79-1.35,0.74c-0.62-0.06-0.82,0.7-1.49,0.53c-0.47-0.12-0.77,0.16-0.99,0.58
						c-0.1,0.2-0.34,0.11-0.52,0.15c-0.45,0.1-0.87,0.25-1.32,0.35c-0.58,0.14-1.08,0.42-1.68,0.5c-0.28,0.04-0.51,0.18-0.72,0.37
						c-0.18,0.16-0.57-0.11-0.7,0.14c-0.13,0.26-0.34,0.35-0.6,0.35c-0.51-0.01-0.77,0.47-1.21,0.58c-0.59,0.16-0.87,0.93-1.62,0.76
						c-0.39-0.09-0.99-0.85-1.59-2.06c-0.43-0.88-0.52-1.22-0.45-1.58c0.1-0.52,0.48-0.49,0.75-0.68c0.45-0.34,0.78-0.92,1.28-1.16
						c0.82-0.4,1.7-0.7,2.51-1.12c1.28-0.66,2.75-0.93,3.93-1.8c0.8-0.59,1.7-0.98,2.53-1.49c0.85-0.52,1.72-0.98,2.54-1.54
						c0.99-0.67,2.08-1.14,3.01-1.93c0.15-0.12,0.27-0.3,0.39-0.47c0.09-0.13,0.21-0.06,0.54,0.56
						C1044.42,119.93,1044.72,120.55,1045.04,121.16z"/>
				</g>
			</g>
		</g>
		<g>
			<g>
				<g>
					<path class="st2" d="M1046.24,160.71l0.14,0.24c1.56,2.66,1.62,3.07,0.79,3.72c-0.41,0.3-0.9,0.39-1.34,0.57
						c-0.69,0.27-1.4,0.53-2.16,0.55c-0.28,0.01-0.47,0.28-0.71,0.4c-0.62,0.3-1.32,0.4-1.93,0.71c-0.23,0.12-0.4,0.39-0.67,0.38
						c-0.67-0.03-1.05,0.77-1.71,0.67c-0.7-0.1-1.08,0.66-1.82,0.44c-0.52-0.16-0.92,0.11-1.25,0.52c-0.16,0.2-0.41,0.09-0.62,0.11
						c-0.54,0.07-1.05,0.19-1.58,0.27c-0.69,0.1-1.31,0.35-2.01,0.4c-0.32,0.02-0.61,0.16-0.88,0.33c-0.24,0.15-0.63-0.14-0.81,0.1
						c-0.19,0.26-0.43,0.35-0.72,0.33c-0.57-0.04-0.93,0.45-1.42,0.56c-0.67,0.15-1.03,0.94-1.76,0.77
						c-0.38-0.08-1.05-0.8-1.73-1.97c-0.49-0.85-0.58-1.19-0.46-1.59c0.18-0.58,0.68-0.61,1.02-0.82c0.61-0.4,1.09-1,1.74-1.26
						c1.05-0.41,2.13-0.69,3.16-1.08c1.62-0.61,3.38-0.79,4.91-1.59c1.03-0.55,2.15-0.88,3.2-1.34c1.07-0.47,2.14-0.89,3.17-1.41
						c1.2-0.64,2.52-1.08,3.48-1.87c0.13-0.12,0.24-0.29,0.33-0.46c0.07-0.12,0.19-0.05,0.56,0.54
						C1045.53,159.54,1045.88,160.13,1046.24,160.71z"/>
				</g>
			</g>
		</g>
		<g>
			<path class="st0" d="M913.91,45.12c-6.31,7.89-10.26,17.36-14.6,26.44c7.89,1.18,20.52,1.18,29.2,1.18
				C924.56,63.67,917.66,52.42,913.91,45.12z"/>
			<g>
				<g>
					<path class="st2" d="M913.41,45.4c0.08-0.05,0.16-0.1,0.24-0.14c2.77-1.39,3.3-1.14,4.92,1.47c0.85,1.37,1.53,2.84,2.31,4.25
						c1.26,2.29,2.53,4.62,3.58,7.06c0.39,0.9,1.03,1.68,1.52,2.54c0.63,1.11,1.21,2.25,1.79,3.4l2.2,4.41
						c0.73,1.42,1.75,3.27,2.34,4.82c0.33,0.89,0.73,1.8,1.15,2.72c-1.69,0.02-3.32,0.11-5.03,0.16c-1.7,0.06-3.49,0.07-5.19-0.05
						c-2.45-0.34-4.72,0.23-7.1-0.27c-1.65-0.35-3.44-0.28-5.17-0.08c-0.83,0.1-1.59-0.12-2.39-0.2l-3.04-0.32L904,74.99l-2.63-0.33
						c-2.02-0.31-4.05-0.62-6.08-0.93c1.13-2.3,2.27-4.59,3.41-6.77c0.19-0.37,0.38-0.74,0.57-1.11l0.39-0.82
						c0.26-0.55,0.49-1.11,0.72-1.67c0.4-0.99,1.21-1.73,1.5-2.7c0.31-1.03,0.76-1.95,1.35-2.82c1.13-1.71,1.82-3.66,2.91-5.38
						c1.47-2.31,2.49-4.96,4.53-6.92c1.06-1,2.38-1.13,3.41-0.26c0.75,0.63,0.81,1.13,0.46,2.06c-0.5,1.35-1.48,2.4-2.2,3.6
						c-1.24,2.08-2.13,4.34-3.29,6.48c-1.9,3.52-3.73,7.12-5.45,10.84c-0.14,0.3-0.2,0.42-0.31,0.65l-0.34,0.63
						c-0.21,0.21,6.42,0.86,10.87,0.75l6.51-0.02l2.94,0c0.29-0.01,0.58-0.02,0.84-0.04l0.37-0.03c-0.23-0.48-0.4-0.77-0.81-1.53
						c-0.85-1.63-1.79-3.36-2.75-5.01c-2.62-4.55-5.2-9.16-8.02-13.73c-0.45-0.73-0.94-1.43-1.43-2.15
						c-0.35-0.52-0.41-0.88,0.16-1.3C912.2,46.05,912.82,45.76,913.41,45.4z"/>
				</g>
			</g>
		</g>
		<g>
			<g>
				<g>
					<path class="st2" d="M906.02,162.49c0-0.09,0-0.18,0-0.28c0.04-3.09,0.14-3.47,0.72-3.65c0.31-0.09,0.61,0.04,0.91,0.05
						c0.49,0.02,0.98,0.07,1.47,0.32c0.18,0.1,0.37-0.09,0.55-0.11c0.47-0.06,0.94,0.1,1.42,0.02c0.18-0.03,0.36-0.23,0.53-0.12
						c0.43,0.26,0.87-0.36,1.28-0.04c0.44,0.33,0.87-0.25,1.31,0.21c0.3,0.32,0.64,0.21,0.96-0.06c0.15-0.13,0.29,0.05,0.44,0.1
						c0.37,0.12,0.74,0.18,1.12,0.29c0.48,0.14,0.96,0.12,1.44,0.32c0.22,0.09,0.45,0.07,0.68,0c0.2-0.06,0.38,0.36,0.57,0.2
						c0.2-0.17,0.39-0.16,0.58-0.04c0.37,0.24,0.75-0.06,1.12,0.03c0.5,0.12,1-0.43,1.5,0.06c0.25,0.25,0.41,1.2,0.39,2.55
						c-0.02,0.98-0.09,1.33-0.27,1.62c-0.27,0.42-0.55,0.21-0.82,0.27c-0.47,0.1-0.93,0.46-1.4,0.45c-0.76-0.02-1.53-0.15-2.29-0.15
						c-1.2,0.01-2.4-0.43-3.61-0.18c-0.82,0.16-1.64,0.1-2.45,0.17c-0.83,0.07-1.65,0.09-2.48,0.21c-0.99,0.15-1.98,0.07-2.98,0.34
						c-0.16,0.04-0.32,0.14-0.47,0.24c-0.11,0.07-0.18-0.04-0.19-0.74C906,163.86,906.02,163.17,906.02,162.49z"/>
				</g>
			</g>
		</g>
		<g>
			<g>
				<g>
					<path class="st2" d="M905.73,144.65c0.04-0.08,0.08-0.17,0.13-0.25c0.86-1.28,1.49-1.91,2.54-1.75
						c0.99,0.18,2.43,1.21,3.88,3.44c1.5,2.36,2.21,4.92,2.68,7.39c0.77,4.02,0.71,8.11-0.16,11.99c-0.32,1.44-0.47,2.93-0.88,4.37
						c-1.06,3.73-2.94,7.27-5.58,10.37c-0.97,1.15-2.03,2.35-3.32,3.17c-1.62,0.99-3.19,1.92-4.86,2.69
						c-1.66,0.76-3.43,1.35-5.28,1.48c-1.94,0.12-3.92,0.22-6-0.17c-2.05-0.37-4.22-1.38-5.69-3.06c-1.05-1.16-1.86-2.45-2.6-3.76
						c-0.67-1.33-1.25-2.68-1.66-4.05c-0.39-1.33-0.34-2.63-0.27-3.93c0.09-1.67,0.35-3.34,1-5.04c0.19-0.43,0.37-0.85,0.59-1.28
						c0.27-0.43,0.49-0.85,0.84-1.28c0.38-0.42,0.67-0.84,1.19-1.21c0.24-0.19,0.49-0.38,0.75-0.54c0.28-0.15,0.57-0.28,0.86-0.41
						c0.65-0.26,1.38-0.42,2.03-0.43c0.34-0.03,0.64-0.01,0.93,0.01c0.31,0.02,0.59,0.05,0.85,0.11c1.07,0.19,1.95,0.51,2.71,0.79
						l0.28,0.1l0.08,0.04l0.11,0.05c0.08,0.03,0.16,0.07,0.24,0.1c0.17,0.06,0.38,0.1,0.56,0.01c0.1-0.05,0.18-0.14,0.23-0.24
						c0.09-0.18,0.07-0.42,0.01-0.64c-0.04-0.14-0.04-0.12-0.19-0.58c-0.13-0.36-0.26-0.72-0.41-1.09
						c-0.52-1.29-0.65-2.76-1.28-4.03c-0.66-1.35-1.14-2.77-1.37-4.35c-0.22-1.53-0.48-3.15-0.28-4.97
						c0.11-0.91,0.36-1.87,0.82-2.76c0.24-0.44,0.51-0.88,0.84-1.25c0.31-0.4,0.66-0.72,1.02-1.02c1.99-1.57,4.16-2.33,6.32-2.67
						c2.16-0.35,4.39-0.17,6.45,0.66c1.05,0.45,1.81,1.12,2.15,1.8c0.34,0.7,0.28,1.34-0.11,1.88c-0.28,0.4-0.57,0.62-0.92,0.7
						c-0.34,0.07-0.76,0.04-1.33-0.05c-1.66-0.21-3.35-0.66-5.06-0.48c-1.46,0.13-2.83,0.67-3.82,1.35
						c-0.47,0.36-0.82,0.75-1.05,1.12c-0.21,0.37-0.35,0.79-0.43,1.33c-0.13,0.89-0.03,2.05,0.24,3.26
						c0.26,1.21,0.67,2.48,1.11,3.78l1.44,4.02l0.36,1.08l0.17,0.56c0.06,0.19,0.16,0.54,0.22,0.83c0.3,1.18,0.45,2.39,0.28,3.47
						c-0.15,1.1-0.68,2.07-1.49,2.82c-0.66,0.45-1.34,0.81-2.11,0.91c-0.76,0.11-1.57,0.05-2.41-0.15
						c-0.41-0.08-0.83-0.24-1.25-0.36l-1.05-0.38c-0.46-0.17-0.89-0.32-1.27-0.43c-0.78-0.23-1.33-0.24-1.57-0.16
						c-0.15,0.06-0.27,0.15-0.45,0.29c-0.08,0.11-0.17,0.21-0.27,0.3l-0.26,0.42c-0.68,1.23-1.03,3.05-0.93,4.79
						c0.08,1.74,0.51,3.5,1.33,4.92c1.2,2.12,3.03,3.32,5.42,3.61c2.38,0.3,5.09-0.28,7.54-1.35c1.24-0.55,2.43-1.22,3.46-2
						c1.03-0.78,1.96-1.71,2.78-2.75c1.66-2.08,2.85-4.6,3.62-7.26c0.92-3.2,1.33-6.6,1.15-9.93c-0.17-3.3-0.97-6.63-2.56-9.09
						c-0.51-0.77-1.13-1.39-1.76-1.85c-0.45-0.34-0.62-0.55-0.31-1.21C905,145.82,905.4,145.26,905.73,144.65z"/>
				</g>
			</g>
		</g>
		<g>
			<g>
				<g>
					<path class="st2" d="M982.42,30.7c-0.01-0.09-0.03-0.18-0.04-0.27c-0.19-3.09,0.21-3.5,2.89-3.86
						c1.41-0.19,2.83-0.17,4.23-0.25c2.27-0.14,4.56-0.26,6.85-0.16c0.85,0.04,1.69-0.21,2.53-0.29c1.09-0.11,2.19-0.16,3.29-0.21
						l1.64-0.09l2.23-0.18c1.54-0.14,3.28-0.46,4.78-0.46l0.19,0c0.16,2.01,0.5,3.79,0.84,5.7c0.1,0.58,0.13,0.66,0.19,0.94
						l0.13,0.72c0.08,0.48,0.12,0.96,0.11,1.44c-0.02,1.03,0.18,2.03,0.36,3.02l0.13,0.76l0.2,1.48c0.12,0.98,0.21,1.97,0.21,2.88
						c0.01,0.7,0.05,1.41,0.12,2.14c-2.05,0.15-3.93,0.47-5.95,0.89c-0.17,0.03-0.34,0.06-0.5,0.09c-0.09,0.02-0.17,0.03-0.26,0.04
						c-0.17,0.02-0.34,0.03-0.51,0.03c-0.34,0-0.68-0.02-1.02-0.01l-5.2,0.29c-2.24,0.11-4.46,0.37-6.7,0.42
						c-1.03,0.02-2.09,0.16-3.12,0.34c-0.45,0.08-0.91,0.04-1.36,0.01c-0.22-0.01-0.45-0.02-0.66-0.02
						c-0.35,0.02-0.72,0.07-1.08,0.15c-1.5,0.33-3.05,0.5-4.42,0.53l-0.01-0.12c-0.12-1.58-0.36-2.96-0.62-4.4l-0.31-1.66
						c-0.08-0.43-0.15-0.85-0.19-1.28c-0.24-2.32-1.15-4.52-1.02-6.89c0.07-1.22,0.88-2.14,2.22-2.31c0.97-0.13,1.36,0.12,1.78,0.93
						c0.61,1.17,0.6,2.46,0.85,3.69c0.22,1.06,0.5,2.11,0.77,3.16l0.38,1.58c0.11,0.47,0.25,1.26,0.24,1.2l0.08,0.67l0.48-0.02
						l0.25-0.01l0.06,0l0.22-0.02l0.49-0.05l3.94-0.4c2.78-0.31,5.57-0.51,8.35-0.75c1.39-0.12,2.79-0.24,4.18-0.39l1.04-0.12
						l0.52-0.06l0.19-0.03c0.23-0.04,0.45-0.08,0.64-0.14l0.24-0.06c-0.16-0.72-0.15-0.48-0.48-2.77l-0.38-2.6l-0.19-1.3l-0.1-0.65
						l-0.03-0.18l-0.02-0.08l-0.14-0.62l-0.54,0.07l-0.13,0.02l-0.06,0.01l-0.17,0.02l-1.1,0.1l-4.41,0.42
						c-4.58,0.48-9.19,0.72-13.76,1.32c-0.73,0.09-1.45,0.24-2.17,0.39c-0.52,0.11-0.82,0.01-0.96-0.68
						C982.54,32.07,982.51,31.38,982.42,30.7z"/>
				</g>
			</g>
		</g>
		<g>
			<path class="st0" d="M1041.35,45.71c-6.97-0.42-12.38,5.82-13.42,11.84c-1.32,7.66,4.23,16.21,11.44,16.77
				c7.75,0.6,14.76-8.24,13.81-16.37C1052.54,52.34,1047.99,46.11,1041.35,45.71z"/>
			<g>
				<g>
					<path class="st2" d="M1041.34,46.29c0-0.09-0.01-0.19,0-0.28c0.1-1.54,0.28-2.4,0.93-2.83c0.32-0.21,0.77-0.35,1.35-0.31
						c0.29,0.01,0.63,0.04,1,0.1c0.37,0.08,0.77,0.2,1.22,0.33c1.89,0.62,3.49,1.81,4.86,3.07c2.24,2.06,3.84,4.67,4.6,7.52
						c0.26,1.06,0.75,2.06,0.92,3.19c0.5,2.92-0.06,5.82-0.94,8.46c-0.31,0.99-0.6,2.03-1.16,2.9c-0.39,0.51-0.72,1.06-1.06,1.6
						c-0.37,0.52-0.71,1.07-1.08,1.59c-0.41,0.5-0.79,1.03-1.25,1.48c-0.48,0.44-0.94,0.88-1.51,1.2c-1.17,0.69-2.25,1.47-3.51,2.06
						l-0.95,0.43c-0.33,0.12-0.67,0.21-1.01,0.3c-0.67,0.21-1.4,0.26-2.12,0.24c-2.02-0.09-4.13-0.21-6.16-0.69
						c-0.48-0.13-0.91-0.33-1.33-0.55c-0.39-0.25-0.75-0.53-1.14-0.78c-1.92-1.33-3.49-2.99-4.66-4.85
						c-1.53-2.37-2.58-5.03-2.87-7.82c-0.09-0.63-0.08-1.29-0.16-1.95c-0.03-0.66-0.04-1.33-0.05-1.98
						c0.04-0.58,0.18-1.15,0.34-1.69c0.2-0.53,0.34-1.06,0.43-1.58c0.15-1.14,0.57-2.17,1.17-3.1c1.16-1.79,2.2-3.7,3.86-5.1
						c1.09-0.95,2.25-1.86,3.56-2.6c1.29-0.74,2.82-1.21,4.34-1.16c0.39,0.02,0.75,0.08,1.07,0.21c0.31,0.14,0.58,0.33,0.78,0.55
						c0.41,0.44,0.58,1.01,0.52,1.69c-0.09,0.98-0.41,1.33-1.16,1.61c-1.06,0.5-2.14,0.56-3.15,1.07c-1.72,0.88-2.96,2.44-4.13,3.95
						c-0.96,1.26-1.72,2.71-2.19,4.21c-0.48,1.49-0.6,3.06-0.39,4.64c0.18,1.24,0.5,2.47,0.97,3.67c0.5,1.18,1.13,2.3,1.91,3.3
						c1.56,1.97,3.78,3.47,6.09,3.56c1.54,0.09,3.09-0.25,4.54-0.99c1.45-0.75,2.78-1.88,3.83-3.24c2.14-2.74,3.31-6.36,2.77-9.55
						c-0.64-3.81-3.37-7.78-6.85-8.79c-0.28-0.06-0.55-0.14-0.83-0.17c-0.28-0.01-0.55-0.04-0.83-0.04
						c-0.4,0.03-0.59-0.11-0.62-0.82C1041.27,47.66,1041.34,46.98,1041.34,46.29z"/>
				</g>
			</g>
		</g>
		<g>
			<g>
				<g>
					<path class="st2" d="M1058.67,139.3c0.04,0.08,0.08,0.17,0.12,0.25c1.27,2.82,1.36,3.2,1,3.56c-0.19,0.19-0.47,0.18-0.7,0.27
						c-0.37,0.15-0.75,0.28-1.22,0.22c-0.17-0.02-0.23,0.21-0.36,0.29c-0.33,0.22-0.74,0.24-1.06,0.48
						c-0.12,0.09-0.17,0.33-0.34,0.3c-0.43-0.09-0.49,0.63-0.93,0.49c-0.46-0.15-0.54,0.53-1.05,0.26
						c-0.36-0.19-0.56,0.03-0.68,0.39c-0.06,0.17-0.24,0.05-0.37,0.06c-0.33,0.02-0.62,0.1-0.95,0.13c-0.41,0.04-0.76,0.22-1.2,0.21
						c-0.2-0.01-0.36,0.09-0.5,0.23c-0.12,0.12-0.43-0.19-0.5,0.02c-0.08,0.22-0.22,0.28-0.41,0.23c-0.38-0.09-0.53,0.32-0.84,0.36
						c-0.42,0.06-0.56,0.74-1.13,0.47c-0.3-0.14-0.81-0.95-1.36-2.18c-0.4-0.9-0.49-1.23-0.48-1.56c0.02-0.48,0.31-0.38,0.49-0.53
						c0.3-0.25,0.5-0.74,0.85-0.89c0.57-0.25,1.19-0.39,1.76-0.66c0.89-0.42,1.95-0.45,2.75-1.09c0.54-0.43,1.17-0.66,1.74-1.01
						c0.58-0.35,1.19-0.65,1.75-1.05c0.67-0.48,1.44-0.75,2.06-1.34c0.1-0.09,0.17-0.24,0.25-0.38c0.05-0.1,0.15-0.02,0.45,0.61
						C1058.1,138.05,1058.38,138.67,1058.67,139.3z"/>
				</g>
			</g>
		</g>
		<g>
			<g>
				<g>
					<path class="st2" d="M1062.25,155.95c-0.09,0.01-0.18,0.02-0.28,0.03c-3.09,0.19-3.48,0.02-3.74-1.21
						c-0.14-0.64-0.06-1.3-0.09-1.94c-0.05-1.04-0.08-2.1,0.1-3.16c0.07-0.39-0.14-0.77-0.19-1.16c-0.13-1-0.04-2.02-0.2-3.02
						c-0.06-0.37-0.28-0.74-0.2-1.11c0.2-0.93-0.49-1.82-0.24-2.72c0.27-0.96-0.38-1.84,0.01-2.8c0.27-0.67,0.11-1.37-0.21-2.03
						c-0.15-0.32,0.01-0.63,0.04-0.95c0.06-0.8,0.06-1.6,0.12-2.4c0.07-1.03-0.02-2.06,0.1-3.09c0.06-0.47,0-0.97-0.1-1.44
						c-0.09-0.42,0.3-0.85,0.11-1.23c-0.2-0.41-0.22-0.81-0.12-1.22c0.19-0.81-0.18-1.59-0.14-2.39c0.05-1.07-0.58-2.1-0.17-3.19
						c0.21-0.56,1.14-0.98,2.49-1.06c0.98-0.05,1.33,0.06,1.65,0.44c0.46,0.54,0.29,1.14,0.39,1.71c0.17,0.98,0.6,1.94,0.66,2.94
						c0.09,1.63,0.08,3.26,0.2,4.89c0.19,2.56-0.06,5.15,0.36,7.69c0.29,1.73,0.34,3.47,0.54,5.2c0.2,1.75,0.34,3.51,0.58,5.26
						c0.3,2.1,0.37,4.21,0.79,6.3c0.07,0.33,0.19,0.66,0.31,0.99c0.09,0.24-0.02,0.38-0.71,0.47
						C1063.62,155.85,1062.93,155.88,1062.25,155.95z"/>
				</g>
			</g>
		</g>
		<g>
			<g>
				<g>
					<path class="st2" d="M1065.53,126.43c0.01,0.09,0.03,0.18,0.04,0.27c0.46,3.06,0.46,3.45,0.13,3.68
						c-0.17,0.12-0.38,0.03-0.57,0.04c-0.3,0.03-0.61,0.04-0.95-0.17c-0.13-0.08-0.21,0.13-0.32,0.17c-0.28,0.1-0.6,0-0.87,0.13
						c-0.1,0.05-0.18,0.26-0.3,0.18c-0.3-0.21-0.48,0.45-0.78,0.18c-0.32-0.28-0.5,0.34-0.84-0.07c-0.24-0.29-0.42-0.14-0.58,0.16
						c-0.07,0.15-0.19-0.02-0.29-0.06c-0.25-0.08-0.48-0.1-0.73-0.17c-0.32-0.09-0.61-0.02-0.94-0.17
						c-0.15-0.07-0.29-0.02-0.42,0.07c-0.11,0.08-0.29-0.31-0.38-0.13c-0.1,0.19-0.21,0.2-0.35,0.1c-0.27-0.2-0.45,0.14-0.69,0.09
						c-0.33-0.07-0.55,0.53-0.93,0.1c-0.2-0.22-0.44-1.15-0.64-2.48c-0.14-0.97-0.15-1.32-0.08-1.62c0.1-0.44,0.3-0.27,0.46-0.35
						c0.27-0.14,0.5-0.55,0.79-0.59c0.47-0.06,0.96-0.01,1.43-0.09c0.74-0.13,1.54,0.17,2.25-0.2c0.48-0.25,0.99-0.27,1.48-0.42
						c0.5-0.16,1-0.26,1.49-0.47c0.59-0.25,1.21-0.28,1.78-0.65c0.09-0.06,0.17-0.17,0.25-0.29c0.06-0.08,0.12,0.03,0.23,0.72
						C1065.32,125.07,1065.42,125.75,1065.53,126.43z"/>
				</g>
			</g>
		</g>
		<g>
			<g>
				<g>
					<path class="st2" d="M1065.86,146.56c0.03,0.09,0.05,0.18,0.08,0.27c0.82,2.98,0.87,3.36,0.6,3.62
						c-0.14,0.14-0.34,0.06-0.51,0.1c-0.27,0.06-0.55,0.1-0.89-0.07c-0.12-0.06-0.17,0.15-0.27,0.2c-0.24,0.13-0.54,0.06-0.78,0.21
						c-0.09,0.06-0.13,0.28-0.25,0.2c-0.3-0.18-0.37,0.49-0.68,0.25c-0.33-0.25-0.41,0.38-0.77,0.01c-0.25-0.26-0.4-0.1-0.5,0.21
						c-0.05,0.15-0.17-0.01-0.27-0.03c-0.23-0.06-0.45-0.05-0.68-0.09c-0.3-0.06-0.56,0.04-0.87-0.08
						c-0.14-0.05-0.26,0.01-0.37,0.11c-0.09,0.09-0.31-0.28-0.36-0.1c-0.06,0.19-0.17,0.22-0.3,0.13c-0.27-0.17-0.39,0.18-0.62,0.15
						c-0.31-0.04-0.43,0.58-0.83,0.19c-0.21-0.2-0.55-1.09-0.91-2.39c-0.26-0.95-0.31-1.29-0.29-1.6c0.03-0.45,0.24-0.29,0.37-0.39
						c0.23-0.17,0.38-0.59,0.64-0.66c0.42-0.1,0.87-0.1,1.29-0.23c0.65-0.2,1.42,0.02,2.01-0.41c0.4-0.29,0.86-0.36,1.29-0.56
						c0.43-0.2,0.88-0.35,1.29-0.6c0.5-0.3,1.06-0.39,1.53-0.81c0.07-0.07,0.13-0.19,0.19-0.31c0.04-0.09,0.11,0.01,0.31,0.69
						C1065.49,145.24,1065.67,145.9,1065.86,146.56z"/>
				</g>
			</g>
		</g>
		<g>
			<g>
				<g>
					<path class="st2" d="M1048.4,84.62c0.02,0.09,0.04,0.18,0.06,0.27c0.64,3.02,0.63,3.42,0.09,3.72
						c-0.28,0.16-0.61,0.1-0.91,0.15c-0.49,0.08-0.98,0.15-1.51,0.01c-0.2-0.05-0.34,0.17-0.52,0.23c-0.45,0.16-0.95,0.11-1.39,0.29
						c-0.17,0.07-0.3,0.3-0.49,0.24c-0.48-0.16-0.77,0.54-1.25,0.33c-0.5-0.23-0.8,0.44-1.33,0.08c-0.37-0.25-0.67-0.06-0.92,0.27
						c-0.12,0.16-0.3,0.01-0.45,0c-0.39-0.04-0.77-0.01-1.16-0.03c-0.5-0.03-0.97,0.09-1.48,0c-0.23-0.04-0.46,0.03-0.66,0.15
						c-0.18,0.1-0.45-0.26-0.6-0.07c-0.16,0.21-0.34,0.24-0.56,0.16c-0.42-0.16-0.72,0.23-1.11,0.22c-0.52-0.01-0.89,0.64-1.48,0.27
						c-0.31-0.19-0.67-1.08-0.94-2.41c-0.2-0.96-0.21-1.31-0.09-1.64c0.18-0.47,0.49-0.33,0.74-0.44c0.44-0.2,0.82-0.65,1.28-0.74
						c0.76-0.15,1.53-0.19,2.28-0.36c1.18-0.27,2.45-0.11,3.58-0.62c0.77-0.34,1.58-0.46,2.37-0.71c0.8-0.25,1.6-0.45,2.39-0.75
						c0.94-0.36,1.93-0.51,2.85-0.99c0.15-0.08,0.28-0.21,0.41-0.34c0.1-0.09,0.18,0,0.35,0.68
						C1048.11,83.28,1048.24,83.95,1048.4,84.62z"/>
				</g>
			</g>
		</g>
		<g>
			<g>
				<g>
					<path class="st2" d="M1051.08,78.34l0.16-0.23c1.82-2.49,2.37-2.61,3.86-1.58c0.78,0.55,1.4,1.3,2.05,1.98
						c1.06,1.12,2.09,2.37,2.78,3.9c0.26,0.56,0.73,1.02,1.05,1.59c0.79,1.51,1.28,3.39,1.16,5.53c-0.04,0.78-0.04,1.66-0.44,2.36
						l-0.36,0.65l-0.4,0.65c-0.26,0.44-0.51,0.89-0.84,1.26c-0.62,0.81-1.36,1.4-2.19,1.73c-0.43,0.13-0.83,0.29-1.22,0.48
						l-1.13,0.46c-0.38,0.17-0.74,0.25-1.12,0.33c-0.38,0.09-0.76,0.11-1.14,0.05c-0.54-0.06-1.06-0.05-1.58,0.02
						c-0.26,0.04-0.52,0.09-0.77,0.15l-0.38,0.09c-0.13,0.03-0.39,0.08-0.59,0.12c-0.85,0.12-1.6-0.07-2.35-0.15
						c-1.93-0.22-3.6-0.6-5.27-0.93l-0.2-0.04c-0.05-0.03-0.19,0.01-0.12-0.09l0.13-0.42l0.26-0.83l0.49-1.63
						c0.09-0.27,0.15-0.53,0.26-0.81l0.35-0.86c0.23-0.57,0.47-1.14,0.72-1.69c0.11-0.25,0.22-0.5,0.32-0.76l0.23-0.6
						c0.1-0.3,0.19-0.61,0.26-0.92c0.13-0.55,0.7-0.91,0.72-1.46c0.03-0.58,0.21-1.08,0.51-1.55c0.58-0.92,0.65-2.02,1.08-2.98
						c0.59-1.29,0.53-2.81,1.46-3.97c0.48-0.6,1.53-0.73,2.8-0.26c0.92,0.34,1.18,0.64,1.28,1.22c0.14,0.86-0.31,1.52-0.51,2.26
						c-0.35,1.27-0.44,2.63-0.89,3.86c-0.37,1.01-0.76,2.02-1.16,3.03l-0.58,1.51l-0.46,1.25c-0.07,0.22-0.17,0.43-0.3,0.68
						l-0.2,0.39l-0.05,0.1c0.01,0.02,0.05,0.02,0.07,0.03l0.17,0.05c0.23,0.06,0.5,0.1,0.79,0.11c0.15,0,0.29,0,0.44-0.02l0.5-0.05
						c0.19-0.01,0.37-0.06,0.56-0.09c1.01-0.17,1.97-0.39,2.78-0.7c0.81-0.3,1.51-0.7,1.83-1.17c0.71-0.89,0.74-2.12-0.16-3.7
						c-1.05-1.83-2.79-3.81-4.87-5.26c-0.33-0.23-0.7-0.41-1.07-0.57c-0.26-0.11-0.31-0.29,0.08-0.88
						C1050.28,79.45,1050.7,78.91,1051.08,78.34z"/>
				</g>
			</g>
		</g>
		<g>
			<g>
				<g>
					<path class="st2" d="M912.44,112.07c0.01-0.09,0.01-0.18,0.02-0.28c0.2-3.08,0.28-3.46,0.62-3.62
						c0.18-0.08,0.34,0.05,0.51,0.07c0.28,0.04,0.55,0.09,0.81,0.36c0.1,0.1,0.21-0.08,0.32-0.1c0.27-0.04,0.53,0.12,0.8,0.05
						c0.1-0.03,0.21-0.22,0.3-0.11c0.23,0.27,0.51-0.34,0.73-0.01c0.23,0.34,0.51-0.23,0.73,0.24c0.15,0.33,0.35,0.22,0.54-0.04
						c0.09-0.13,0.16,0.06,0.24,0.11c0.2,0.13,0.41,0.19,0.61,0.31c0.26,0.15,0.54,0.14,0.8,0.36c0.12,0.1,0.25,0.08,0.38,0.02
						c0.12-0.05,0.2,0.36,0.31,0.21c0.12-0.16,0.23-0.15,0.33-0.02c0.2,0.25,0.43-0.04,0.63,0.06c0.28,0.14,0.59-0.41,0.84,0.1
						c0.13,0.26,0.16,1.21,0.07,2.56c-0.07,0.98-0.12,1.32-0.25,1.61c-0.18,0.41-0.32,0.2-0.48,0.25c-0.27,0.09-0.55,0.44-0.82,0.41
						c-0.43-0.04-0.85-0.19-1.29-0.21c-0.68-0.02-1.33-0.48-2.03-0.27c-0.47,0.14-0.93,0.06-1.4,0.11
						c-0.47,0.05-0.94,0.05-1.41,0.15c-0.57,0.12-1.13,0.02-1.7,0.27c-0.09,0.04-0.19,0.13-0.28,0.23c-0.07,0.07-0.1-0.05-0.06-0.75
						C912.35,113.44,912.4,112.76,912.44,112.07z"/>
				</g>
			</g>
		</g>
		<g>
			<path class="st1" d="M908.2,107.83c-1.65-4.41-6.96-6.28-10.6-6.52c-6.56-0.43-14.53,4.01-14.87,10.39
				c-0.35,6.53,7.4,12.98,14.87,11.82C905.1,122.36,910.43,113.82,908.2,107.83z"/>
			<g>
				<g>
					<path class="st2" d="M907.66,108.04l0.26-0.11c1.45-0.53,2.3-0.73,2.94-0.32c0.65,0.4,1.1,1.43,1.19,3.18
						c0.09,1.85-0.39,3.59-1.01,5.14c-0.97,2.56-2.6,4.79-4.7,6.42c-0.38,0.31-0.74,0.65-1.11,0.97c-0.37,0.33-0.73,0.69-1.16,0.95
						c-2.15,1.47-4.8,2.24-7.45,2.47c-0.98,0.06-2.01,0.25-2.95-0.01c-0.29-0.07-0.59-0.13-0.88-0.19
						c-0.29-0.08-0.58-0.15-0.87-0.21c-0.59-0.11-1.16-0.26-1.73-0.43c-0.58-0.15-1.13-0.36-1.66-0.61
						c-0.54-0.23-1.03-0.55-1.47-0.91c-0.94-0.76-1.9-1.42-2.82-2.2c-0.91-0.77-1.73-1.69-2.26-2.82c-0.69-1.6-1.58-3.2-2.22-5.04
						c-0.13-0.45-0.23-0.89-0.21-1.34c0.03-0.45,0.06-0.9,0.09-1.35c0.19-2.32,1.15-4.49,2.47-6.13c1.72-2.11,3.78-3.72,6.08-4.65
						c0.52-0.21,1.05-0.45,1.59-0.65c0.53-0.23,1.07-0.43,1.61-0.63c0.96-0.36,1.99-0.16,2.89-0.44c0.96-0.31,1.97-0.37,2.96-0.21
						c1.94,0.29,3.85,0.41,5.62,1.15c1.18,0.51,2.4,1,3.55,1.73c1.14,0.73,2.22,1.74,2.83,3.07c0.3,0.69,0.33,1.37,0.07,1.91
						c-0.24,0.54-0.71,0.9-1.35,1.12c-0.94,0.32-1.34,0.2-1.89-0.22c-0.8-0.57-1.24-1.35-2.05-1.91c-1.4-0.94-3.18-1.27-4.87-1.64
						c-1.41-0.31-2.76-0.37-4.2-0.2c-1.42,0.17-2.86,0.57-4.17,1.2c-1.04,0.48-2.01,1.08-2.87,1.77c-0.85,0.68-1.62,1.46-2.12,2.34
						c-1.04,1.72-1.15,3.78-0.12,5.66c1.32,2.51,3.84,4.69,6.69,5.6c2.89,0.95,5.89,0.62,8.3-1.07c1.44-0.99,2.73-2.3,3.61-3.84
						c0.88-1.51,1.43-3.25,1.26-4.75c-0.02-0.48-0.2-0.9-0.37-1.29c-0.16-0.26-0.08-0.44,0.56-0.73
						C906.38,108.54,907.03,108.32,907.66,108.04z"/>
				</g>
			</g>
		</g>
		<g>
			<g>
				<g>
					<g>
						<path class="st2" d="M977.44,82.49c-0.01-0.16-0.04-0.32-0.01-0.47c0.41-2.54,1.18-3.88,3.62-4.33
							c0.61-0.11,1.33-0.18,2.17-0.16c0.84,0.03,1.8,0.13,2.91,0.27c1.11,0.12,2.35,0.37,3.76,0.71c0.7,0.16,1.45,0.33,2.23,0.53
							c0.78,0.24,1.6,0.48,2.47,0.74c0.91,0.27,1.82,0.57,2.72,0.92c0.9,0.34,1.8,0.68,2.68,1.05c1.76,0.81,3.52,1.59,5.21,2.56
							c3.4,1.88,6.65,4.09,9.62,6.66c2.4,2.11,4.63,4.43,6.62,6.97c1.99,2.54,3.67,5.31,5.06,8.2c2.8,5.79,4.32,12.08,4.72,18.27
							l0.2,3.43l0.09,1.62l0.12,1.59c0.13,2.35,0.19,4.46,0.17,6.65c-0.15,11.2-1.23,22.27-2.82,33.43
							c-0.6,4.14-1.09,8.42-2.29,12.45c-0.78,2.53-1.5,5.07-2.41,7.64c-0.9,2.56-1.87,5.15-3.25,7.72
							c-1.37,2.56-3.01,5.17-5.63,7.46c-0.68,0.56-1.42,1.08-2.15,1.59c-0.78,0.48-1.67,0.88-2.51,1.27
							c-1.38,0.54-2.57,0.9-3.85,1.25c-5.29,1.42-10.37,2.65-15.52,3.66c-5.14,0.97-10.33,1.69-15.62,1.68
							c-7.4-0.01-15.33,0.22-23.17-0.38c-3.8-0.31-7.27-1.33-10.87-2.6c-2.29-0.82-4.57-1.82-6.8-3.1
							c-2.21-1.33-4.37-2.95-6.25-5.01l-1.33-1.63c-0.38-0.53-0.68-1.06-1.02-1.59l-0.99-1.59c-0.16-0.27-0.33-0.53-0.48-0.8
							l-0.4-0.83c-0.52-1.1-1.07-2.2-1.55-3.31l-1.21-3.38c-1.87-5.84-2.75-11.72-3.21-17.51c-0.45-5.8-0.45-11.52-0.24-17.17
							c0.19-5.15,0.33-10.55,0.21-15.6c-0.02-1.12-0.01-2.23-0.01-3.29c0.01-0.54,0.02-1.08,0.03-1.61
							c0.02-0.58,0.04-1.15,0.06-1.72c0.04-1.15,0.08-2.29,0.08-3.41c0-0.56,0-1.13-0.02-1.69c0.02-0.56,0.03-1.12,0.02-1.69
							c-0.02-2.37-0.04-4.71,0.29-7.04c0.14-1.16,0.26-2.32,0.47-3.47c0.25-1.15,0.51-2.3,0.78-3.44c1.21-4.46,2.53-8.95,4.65-13.2
							c2.08-4.24,4.84-8.28,8.45-11.48c1.29-1.19,2.71-2.26,4.11-3.26l1.99-1.36c0.73-0.5,1.46-0.96,2.2-1.4
							c1.47-0.88,2.96-1.67,4.47-2.39c0.76-0.36,1.52-0.71,2.29-1.04l1.17-0.48l0.6-0.23c0.2-0.07,0.39-0.15,0.75-0.27
							c5.66-1.77,11.38-2.34,17.02-1.95c6.35,0.5,10.09,2.83,9.58,4.98c-0.35,1.64-1.91,1.9-6.03,2.1
							c-2.99,0.17-5.97,0.28-8.93,0.53c-2.95,0.26-5.89,0.68-8.64,1.49l-0.75,0.23l-0.71,0.28l-0.85,0.35
							c-0.56,0.24-1.12,0.49-1.68,0.75c-1.11,0.52-2.2,1.09-3.24,1.69c-1.04,0.6-2.05,1.24-2.98,1.91l-1.57,1.13
							c-0.5,0.35-0.93,0.71-1.39,1.07c-3.55,2.9-6.29,6.67-8.49,10.83c-1.82,3.54-3.07,7.44-3.99,11.45l-0.61,3.04
							c-0.18,1.02-0.27,2.07-0.41,3.1c-0.32,2.06-0.38,4.18-0.49,6.28l-0.09,1.58l0.02,1.59l0.04,3.19l0.02,1.61l0.05,1.73
							c0.04,1.16,0.05,2.3,0.04,3.43c-0.01,4.54-0.15,8.97-0.21,13.37c-0.11,6.92-0.08,13.74,0.56,20.41
							c0.12,1.68,0.4,3.3,0.62,4.95c0.09,0.83,0.3,1.62,0.44,2.43c0.17,0.8,0.3,1.62,0.49,2.4l0.64,2.34l0.32,1.17l0.41,1.12
							l0.81,2.24l1.02,2.11l0.51,1.06c0.19,0.34,0.41,0.65,0.61,0.97l1.23,1.95c0.84,1.05,1.72,2.07,2.91,2.91
							c2.26,1.76,5.14,3.04,8.19,3.97c6.14,1.86,12.9,2.46,19.62,2.45c9.14-0.07,18.38-1.06,27.39-2.83
							c4.49-0.91,8.96-2.02,13.13-3.49l1.52-0.57c0.31-0.18,0.62-0.34,0.95-0.48c0.31-0.24,0.62-0.48,0.95-0.7
							c0.31-0.27,0.61-0.61,0.93-0.9c1.21-1.32,2.31-3.02,3.26-4.88c1.88-3.84,3.25-8.19,4.33-12.64c1.07-4.47,1.87-9.06,2.51-13.69
							c1.26-9.27,1.88-18.71,2.03-28.1l0.02-4.21c-0.01-1.38-0.02-2.81-0.11-3.97l-0.11-2.26c-0.03-0.68-0.08-1.33-0.14-1.99
							c-0.11-1.31-0.28-2.61-0.49-3.89c-0.86-5.13-2.58-10.06-5.24-14.4c-2.64-4.35-6.17-8.11-10.37-11.09
							c-4.19-2.98-8.96-5.28-14.04-6.85l-2.43-0.72c-0.82-0.21-1.66-0.39-2.48-0.58c-1.64-0.41-3.35-0.62-5.02-0.92
							c-2.44-0.33-3.79-0.71-4.06-1.95C977.22,84.78,977.5,83.66,977.44,82.49z"/>
					</g>
				</g>
			</g>
			<g>
				<g>
					<g>
						<path class="st2" d="M1009.57,205.01c-0.07-0.14-0.15-0.27-0.2-0.42c-0.44-1.21-0.71-2.18-0.71-3.02
							c0-0.84,0.28-1.54,0.86-2.14c1.17-1.23,3.53-1.97,7.04-2.89c3.67-0.99,7.09-1.78,10.05-3.23c4.81-2.32,8.31-5.89,10.81-10.68
							c0.93-1.79,1.22-3.88,1.62-5.93c0.11-0.69,0.25-1.3,0.36-2.05l0.35-2.21c0.22-1.48,0.45-2.96,0.64-4.45
							c0.41-2.98,0.72-5.97,0.9-8.97c0.05-1.12,0.04-2.24,0.05-3.36c-0.01-1.12,0-2.23,0.15-3.32c0.67-5.47-0.38-10.97-0.15-16.19
							c0.23-5.57-1.36-10.8-1.71-16.19c-0.03-0.48-0.07-0.96-0.12-1.44c-0.07-0.48-0.16-0.95-0.26-1.42
							c-0.2-0.95-0.41-1.91-0.7-2.84c-0.32-0.93-0.66-1.84-1.03-2.75c-0.35-0.91-0.84-1.77-1.27-2.62c-0.22-0.41-0.4-0.83-0.56-1.25
							c-0.18-0.41-0.34-0.82-0.5-1.24c-0.31-0.83-0.56-1.67-0.92-2.49c-1.79-4.17-4.1-8.12-6.72-11.84c-1.7-2.39-3.6-4.62-5.61-6.7
							c-2.04-2.04-4.22-3.92-6.44-5.48l-0.77-0.53l-0.79-0.43c-0.26-0.14-0.54-0.3-0.8-0.42l-0.79-0.3
							c-0.47-0.23-1.19-0.34-1.79-0.49c-0.63-0.14-1.26-0.28-1.88-0.41c-1.16-0.12-2.26-0.43-3.37-0.72
							c-1.13-0.21-2.27-0.38-3.4-0.32c-2.41,0.23-4.72,0.23-7.12,0.21c-4.71-0.08-9.36,1.11-13.98,1.88
							c-6.28,1.08-12.19,3.63-18.3,4.96c-1.59,0.35-2.94,0.38-4.05,0.07c-1.04-0.3-1.98-0.9-2.49-1.9
							c-0.37-0.73-0.42-1.32-0.08-1.95c0.17-0.3,0.46-0.66,0.8-0.96c0.35-0.31,0.8-0.63,1.35-1c3.18-2.03,6.83-2.81,10.27-3.9
							c5.95-1.84,11.89-3.78,18.16-4.66c5.13-0.7,10.36-1.07,15.69-0.85l4.02,0.31l4.06,0.64c1.36,0.33,2.73,0.7,4.09,1.06
							c0.72,0.26,1.45,0.55,2.16,0.84c0.67,0.32,1.31,0.66,1.97,0.99c3.98,2.2,7.18,5.01,10.13,8.01c2.92,3.02,5.52,6.28,7.81,9.73
							c2.29,3.45,4.3,7.06,6.1,10.78c1.75,3.74,3.23,7.61,4.52,11.55c1.68,5.36,2.67,10.85,3.3,16.33
							c0.62,5.48,0.88,10.97,0.94,16.43c0.06,5.53-0.16,11.04-0.58,16.54c-0.21,2.75-0.46,5.49-0.78,8.23
							c-0.14,1.37-0.33,2.74-0.5,4.11c-0.2,1.39-0.34,2.69-0.63,4.2c-0.61,3.52-1.65,7.06-3.29,10.45
							c-1.68,3.36-3.95,6.58-6.81,9.17c-2.82,2.63-6.14,4.62-9.48,6.12c-3.36,1.49-6.79,2.52-10.05,3.38
							c-2.07,0.55-4.07,1.12-5.81,1.71c-1.24,0.43-1.78,0.43-2.36-0.6C1010.43,207.14,1010.08,206.05,1009.57,205.01z"/>
					</g>
				</g>
			</g>
			<g>
				<g>
					<g>
						<path class="st2" d="M919.9,57.9l-0.08-0.45c-0.73-5.1-0.46-5.78,1.81-6.36c1.2-0.31,2.4-0.17,3.59-0.26
							c1.91-0.1,3.84-0.16,5.73,0.22c0.7,0.14,1.4-0.2,2.1-0.26c1.81-0.12,3.62,0.1,5.42-0.02c0.67-0.05,1.35-0.38,2-0.2
							c1.63,0.46,3.31-0.55,4.88,0.03c1.65,0.6,3.32-0.3,4.95,0.54c1.13,0.6,2.39,0.46,3.61,0.09c0.59-0.18,1.11,0.16,1.66,0.27
							l1.05,0.2l0.26,0.05l0.13,0.02l0.23,0.03l0.96,0.13c1.27,0.18,2.54,0.34,3.74,0.55c1.23,0.21,2.46,0.37,3.68,0.54
							c0.11,1.99,0.23,3.97,0.21,5.92c-0.01,0.74,0.03,1.46,0.1,2.18l0.05,0.5l0.05,0.31c0.04,0.21,0.08,0.42,0.12,0.62
							c0.16,0.73-0.46,1.49-0.14,2.16c0.34,0.71,0.39,1.42,0.24,2.15c-0.29,1.43,0.33,2.8,0.28,4.2c-0.07,1.9,0.99,3.71,0.23,5.78
							c-0.09,0.25-0.28,0.54-0.52,0.78c-0.25,0.26-0.55,0.38-0.93,0.63c-0.4,0.33-0.87,0.46-1.34,0.44
							c-0.24-0.01-0.48-0.05-0.73-0.12c-0.12-0.03-0.25-0.07-0.38-0.12c-0.1-0.04-0.21-0.08-0.32-0.12
							c-0.06-0.02-0.28-0.13-0.72-0.29c-0.13-0.04-0.25-0.08-0.37-0.12c-0.13-0.04-0.34-0.1-0.36-0.1
							c-0.12-0.03-0.24-0.04-0.34-0.05c-0.11,0-0.2,0-0.29,0.02c-0.09,0.02-0.17,0.08-0.24-0.01c-0.15-0.1-0.27-0.22-0.39-0.35
							c-0.7-0.79-0.41-1.83-0.55-2.79c-0.26-1.68-0.99-3.34-1.1-5.05c-0.09-1.41-0.15-2.82-0.21-4.23l-0.11-2.12l-0.07-1.02
							l-0.02-0.29c-0.04-0.33-0.02-0.67,0-1.08c-0.4-0.14-0.82-0.27-1.44-0.38c-1.6-0.17-3.22-0.27-4.84-0.21
							c-3.01,0.11-6-0.11-9-0.05c-3.03,0.05-6.04,0.09-9.03,0.35c-3.58,0.34-7.16,0.41-10.55,1.24c-0.53,0.14-1.05,0.37-1.56,0.6
							c-0.37,0.17-0.61,0-0.85-1.14C920.25,60.17,920.1,59.03,919.9,57.9z"/>
					</g>
				</g>
			</g>
			<g>
				<g>
					<g>
						<path class="st2" d="M995.62,44.46c0.15-0.02,0.3-0.05,0.46-0.07c5.11-0.64,5.77-0.53,6.22,0.65
							c0.24,0.62,0.12,1.28,0.18,1.92c0.1,1.03,0.17,2.07-0.11,3.15c-0.11,0.4,0.25,0.74,0.34,1.12c0.23,0.98,0.1,2,0.38,2.97
							c0.1,0.36,0.48,0.69,0.35,1.07c-0.31,0.96,0.84,1.73,0.44,2.67c-0.42,0.99,0.66,1.77,0.03,2.78
							c-0.44,0.71-0.16,1.38,0.38,1.98c0.26,0.29-0.01,0.63-0.04,0.94c-0.09,0.8-0.08,1.6-0.15,2.4c-0.1,1.04,0.08,2.04-0.12,3.09
							c-0.09,0.48,0.01,0.96,0.19,1.41c0.15,0.4-0.48,0.89-0.16,1.24c0.33,0.37,0.37,0.77,0.22,1.2c-0.29,0.83,0.32,1.56,0.27,2.35
							c-0.06,1.07,1,2,0.33,3.15c-0.35,0.59-1.87,1.14-4.1,1.41c-1.62,0.2-2.21,0.13-2.74-0.19c-0.77-0.47-0.51-1.09-0.68-1.64
							c-0.29-0.95-1.03-1.84-1.14-2.82c-0.18-1.6-0.18-3.23-0.41-4.83c-0.35-2.52,0.01-5.12-0.73-7.59
							c-0.51-1.67-0.63-3.4-0.98-5.09c-0.36-1.71-0.62-3.44-1.06-5.14c-0.53-2.04-0.68-4.13-1.41-6.15
							c-0.12-0.32-0.32-0.63-0.53-0.93c-0.15-0.22,0.02-0.38,1.17-0.57C993.35,44.76,994.49,44.63,995.62,44.46z"/>
					</g>
				</g>
			</g>
			<g>
				<g>
					<g>
						<path class="st2" d="M1027.74,56.99c0,0.15,0,0.31,0,0.46c-0.04,5.15-0.21,5.79-1.22,6.08c-0.53,0.15-1.06-0.06-1.58-0.08
							c-0.85-0.04-1.7-0.1-2.55-0.53c-0.31-0.16-0.63,0.15-0.95,0.19c-0.82,0.1-1.64-0.16-2.46-0.02c-0.3,0.05-0.61,0.38-0.91,0.21
							c-0.74-0.43-1.5,0.61-2.22,0.08c-0.76-0.55-1.51,0.42-2.27-0.34c-0.53-0.53-1.1-0.34-1.65,0.11
							c-0.27,0.22-0.51-0.09-0.76-0.17c-0.64-0.2-1.29-0.29-1.94-0.47c-0.83-0.23-1.67-0.2-2.5-0.53c-0.38-0.15-0.78-0.11-1.17,0
							c-0.34,0.1-0.67-0.59-0.99-0.32c-0.34,0.28-0.67,0.27-1,0.06c-0.65-0.4-1.3,0.11-1.94-0.04c-0.87-0.2-1.74,0.73-2.6-0.09
							c-0.44-0.42-0.72-2-0.7-4.25c0.02-1.64,0.14-2.21,0.46-2.69c0.47-0.7,0.95-0.36,1.41-0.45c0.81-0.17,1.61-0.77,2.42-0.75
							c1.32,0.03,2.65,0.24,3.97,0.23c2.09-0.02,4.16,0.69,6.25,0.28c1.42-0.28,2.83-0.17,4.25-0.3c1.43-0.13,2.86-0.16,4.3-0.37
							c1.72-0.26,3.44-0.13,5.16-0.59c0.27-0.07,0.55-0.24,0.82-0.4c0.2-0.12,0.31,0.07,0.33,1.24
							C1027.75,54.7,1027.73,55.84,1027.74,56.99z"/>
					</g>
				</g>
			</g>
		</g>
		<g>
			<g>
				<g>
					<path class="st2" d="M933,228.69c-0.03-0.09-0.06-0.18-0.08-0.27c-0.75-3-0.59-3.44,1.02-4.03c0.84-0.31,1.74-0.42,2.6-0.62
						c1.4-0.34,2.81-0.66,4.26-0.77c0.54-0.04,1.01-0.36,1.53-0.51c1.33-0.4,2.71-0.6,4.02-1.03c0.49-0.16,0.95-0.48,1.46-0.51
						c1.29-0.07,2.37-0.99,3.63-0.99c1.33,0,2.41-0.89,3.77-0.76c0.95,0.08,1.86-0.27,2.69-0.76c0.4-0.24,0.85-0.16,1.28-0.23
						c1.09-0.16,2.16-0.38,3.24-0.55c1.4-0.22,2.76-0.59,4.18-0.75c0.65-0.07,1.3-0.27,1.92-0.5c0.55-0.2,1.19,0.06,1.67-0.23
						c0.51-0.31,1.05-0.44,1.63-0.46c1.12-0.04,2.11-0.62,3.19-0.8c1.45-0.25,2.73-1.16,4.26-1.05c0.79,0.06,1.5,0.85,1.82,2.17
						c0.23,0.95,0.13,1.34-0.32,1.75c-0.66,0.61-1.49,0.61-2.24,0.86c-1.3,0.44-2.52,1.13-3.84,1.46c-2.17,0.54-4.38,0.98-6.54,1.55
						c-3.41,0.89-6.93,1.36-10.29,2.49c-2.27,0.76-4.61,1.3-6.91,1.97c-2.32,0.68-4.67,1.3-6.98,2.03
						c-2.77,0.88-5.61,1.53-8.35,2.53c-0.44,0.16-0.86,0.37-1.28,0.58c-0.3,0.15-0.51,0.09-0.74-0.58
						C933.35,230.01,933.2,229.35,933,228.69z"/>
				</g>
			</g>
		</g>
		<g>
			<path class="st0" d="M965.01,156.78c1.33,2.63,7.71,41.56,4.61,46.87s-13.71,5.92-23.55,8.77c-9.83,2.84-14.74,5.21-14.6,5.72
				c1.39,2.69,3.16,8.68,3.16,8.68l43.4-12.03c0,0-2.29-32.71-3.83-57.72"/>
			<g>
				<g>
					<path class="st2" d="M973.62,157.14c0.09-0.02,0.18-0.05,0.27-0.06c3.09-0.14,3.55,0.94,4.18,7.79
						c0.33,3.6,0.45,7.2,0.67,10.77c0.37,5.79,0.72,11.62,0.85,17.43c0.05,2.16,0.38,4.31,0.55,6.47c0.19,2.5,0.34,5.01,0.49,7.51
						l0.23,3.76l0.42,6.29l-3.17,0.9c-2.32,0.66-2.81,0.86-3.9,1.2c-0.99,0.32-1.98,0.62-2.98,0.84c-4.99,1.12-9.78,3.1-14.62,4.11
						c-5.11,1.08-9.87,3.01-15,3.96c-1.05,0.2-2.01,0.41-3.16,0.7c-1.94,0.51-3.87,1.05-5.84,1.62c-0.45-1.45-0.91-2.93-1.41-4.38
						l-0.38-1.09l-0.15-0.4l-0.11-0.27l-0.46-1.07c-0.18-0.4-0.33-0.79-0.48-1.17c-0.14-0.35-0.27-0.69-0.41-1.04l-0.47-1.18
						c-0.14-0.39-0.37-0.79-0.35-1.13c-0.01-0.34-0.11-0.74-0.01-0.99c0.06-0.28,0.07-0.56,0.25-0.89c0.15-0.3,0.33-0.57,0.56-0.83
						c0.58-0.66,1.49-1.18,2.42-1.63c0.47-0.23,0.95-0.44,1.43-0.65l0.9-0.36c1.09-0.42,2.17-0.81,3.25-1.18
						c2.16-0.73,4.32-1.38,6.49-1.98c5.64-1.63,11.46-2.56,16.7-3.85c1.21-0.29,2.37-0.69,3.47-1.16c1.07-0.48,2.01-1.08,2.69-1.72
						c0.13-0.15,0.27-0.29,0.42-0.42c0.15-0.13,0.22-0.29,0.35-0.42l0.18-0.2c0.02-0.04,0.03-0.07,0.06-0.1l0.04-0.04
						c0.02-0.03,0.03-0.08,0.05-0.12l0.1-0.26c0.25-0.78,0.41-1.83,0.37-2.84c-0.09-2.18-0.17-4.36-0.18-6.58
						c-0.03-4.37-0.83-8.74-1.29-13.05c-0.64-5.85-2.08-11.58-2.71-17.38c-0.17-1.49-0.14-2.75,0.08-3.65
						c0.22-0.91,0.62-1.4,1.22-1.71c0.23-0.1,0.44-0.12,0.66-0.05c0.23,0.09,0.43,0.24,0.62,0.45c0.39,0.45,0.73,1.16,1.11,2.22
						c1.1,3.09,1.45,6.37,2.02,9.54c0.98,5.47,2.09,10.88,2.66,16.44c0.44,4.57,0.82,9.12,0.66,13.92
						c-0.07,1.22-0.15,2.43-0.48,3.87c-0.12,0.39-0.16,0.7-0.39,1.2c-0.1,0.22-0.21,0.46-0.32,0.66l-0.33,0.48
						c-0.23,0.31-0.44,0.65-0.7,0.92l-0.79,0.79c-1.09,0.96-2.27,1.7-3.43,2.24c-1.17,0.58-2.33,0.99-3.48,1.37
						c-3.53,1.13-6.98,1.77-10.34,2.51c-3.37,0.71-6.59,1.56-9.89,2.58c-1.63,0.5-3.25,1.03-4.84,1.61
						c-0.79,0.29-1.58,0.59-2.34,0.91l-0.6,0.26c-0.13,0.06-0.27,0.13-0.4,0.2c-0.11,0.08-0.31,0.13-0.3,0.28l0.19,0.4l0.17,0.41
						l0.44,1.17l1.04,2.92c0.1-0.01,0.22-0.07,0.33-0.1l0.55-0.18l0.14-0.05l0.44-0.13l0.87-0.25l3.49-1.01l6.98-1.98l13.97-3.94
						c4.11-1.18,8.23-2.35,12.34-3.53c-0.32-4.07-0.63-8.14-0.95-12.2c-0.94-11.71-1.65-23.45-2.71-35.14
						c-0.17-1.86-0.39-3.71-0.61-5.55c-0.16-1.33-0.1-2.09,0.59-2.38C972.26,157.27,972.95,157.3,973.62,157.14z"/>
				</g>
			</g>
		</g>
		<g>
			<g>
				<g>
					<path class="st2" d="M969.67,137.67c0.01,0.09,0.03,0.18,0.04,0.27c0.13,1.54,0.12,2.42-0.1,2.96
						c-0.22,0.54-0.66,0.73-1.43,1.08c-0.8,0.36-1.67,0.63-2.43,1.11c-1.2,0.79-2.26,1.76-3.06,2.78c-0.16,0.19-0.24,0.42-0.28,0.65
						c-0.06,0.23-0.06,0.45-0.1,0.67c-0.08,0.27-0.06,0.54-0.12,0.81c0.03,0.27-0.04,0.54,0.02,0.81c0.02,0.54,0.23,1.07,0.52,1.56
						c0.24,0.36,0.64,0.61,0.87,1.01c0.26,0.52,0.82,0.84,1.34,1.14c0.56,0.26,1.11,0.52,1.61,0.89c0.52,0.43,1.18,0.56,1.81,0.67
						c0.64,0.09,1.24,0.14,1.84,0.38c0.86,0.32,1.88,0.05,2.68-0.48c0.38-0.28,0.84-0.23,1.26-0.39c1.07-0.37,2.08-0.97,2.97-1.67
						c0.6-0.44,1.04-1,1.47-1.55c0.36-0.57,0.73-1.15,0.94-1.75c0.15-0.27,0.15-0.57,0.2-0.86c0.01-0.29-0.03-0.58-0.08-0.86
						c-0.13-0.46,0.15-1.08-0.23-1.49c-0.1-0.1-0.18-0.21-0.25-0.32c-0.09-0.1-0.17-0.21-0.25-0.32c-0.13-0.23-0.28-0.46-0.41-0.72
						c-0.53-1.03-1.69-1.55-2.66-2.18c-0.69-0.41-1.48-0.66-2.27-0.79c-0.79-0.15-1.55-0.28-2.32-0.55
						c-0.4-0.16-0.74-0.44-1.01-0.86c-0.27-0.43-0.48-0.99-0.53-1.66c-0.07-0.98,0.17-1.34,1.01-1.66c1.23-0.41,2.5-0.05,3.68,0.18
						c2.05,0.43,4.18,1.02,5.95,2.41c1.42,1.15,2.67,2.64,3.46,4.46c0.8,1.81,1.04,3.93,0.67,5.88c-0.64,3.09-2.56,5.49-4.74,7.14
						c-1.09,0.85-2.28,1.54-3.54,2.09c-1.25,0.56-2.57,0.99-3.96,1.24c-1.89,0.37-3.91,0.26-5.72-0.24
						c-1.83-0.49-3.58-1.27-5.16-2.39c-1.58-1.14-3.06-2.64-3.98-4.59c-0.93-1.93-1.29-4.23-0.88-6.39
						c0.22-1.31,0.72-2.51,1.34-3.61c0.64-1.08,1.42-2.04,2.27-2.88c1.74-1.66,3.74-2.94,5.98-3.81c0.71-0.29,1.44-0.56,2.19-0.81
						c0.56-0.15,0.9-0.08,1.07,0.6C969.53,136.3,969.57,136.99,969.67,137.67z"/>
				</g>
			</g>
		</g>
	</g>
</g>
<text transform="matrix(1 0 0 1 452.6279 286.4229)" class="st0 st3 st4">www.drummersbrainchild.com</text>
<text transform="matrix(1 0 0 1 60.3345 287.835)" class="st2 st5 st6">See more at:</text>
<text transform="matrix(1 0 0 1 125.7905 62.9434)" class="st7 st5 st6">From:</text>
</svg>
